<?xml version="1.0" encoding="utf-8"?>
<!-- Generator: Adobe Illustrator 21.1.0, SVG Export Plug-In . SVG Version: 6.00 Build 0)  -->
<svg version="1.1" id="Layer_1" xmlns="http://www.w3.org/2000/svg" xmlns:xlink="http://www.w3.org/1999/xlink" x="0px" y="0px"
	 viewBox="0 0 246 2000" style="enable-background:new 0 0 246 2000;" xml:space="preserve">
<style type="text/css">
	.st0{fill:#FFFFFF;}
</style>
<path class="st0" d="M247,1957c-11,0-20.3,7.5-23,17.6c-2.4-3.2-5.8-5.1-9.5-5.1c-2.2,0-4.2,0.7-6,1.8c-3-9.5-11-16.3-20.5-16.3
	c-8.3,0-15.5,5.2-19.2,13c-2.3-0.9-4.8-1.5-7.5-1.5c-6.9,0-12.8,3.4-16.1,8.6c-2.5-11.5-11.4-20.1-21.9-20.1
	c-10.8,0-19.8,8.8-22.1,20.7c-3.1-5.5-9-9.2-15.8-9.2c-2.8,0-5.4,0.6-7.7,1.7c-3.4-7.8-10.6-13.2-19-13.2c-9,0-16.7,6.2-19.7,14.9
	c-1.3-0.3-2.6-0.4-4-0.4c-5.4,0-10.1,2.1-13.1,5.4c-2.7-10.2-12.5-17.7-24.1-17.7c-13.7,0-24.9,10.5-24.9,23.5s11.1,23.5,24.9,23.5
	c0.7,0,1.4,0,2.1-0.1v6.8h246.6v-6.5c0.1,0,0.3,0,0.4,0c13.1,0,23.8-10.6,23.8-23.8S260.1,1957,247,1957z"/>
</svg>
