<?xml version="1.0" encoding="utf-8"?>
<!-- Generator: Adobe Illustrator 21.1.0, SVG Export Plug-In . SVG Version: 6.00 Build 0)  -->
<svg version="1.1" id="Layer_1" xmlns="http://www.w3.org/2000/svg" xmlns:xlink="http://www.w3.org/1999/xlink" x="0px" y="0px"
	 viewBox="0 0 500 500" style="enable-background:new 0 0 500 500;" xml:space="preserve">
<style type="text/css">
	.st0{fill:#F1BF8A;}
	.st1{fill:#8FBDE6;}
	.st2{fill:#6E9F5A;}
	.st3{fill:#FFFFFF;}
	.st4{fill:#F3DC56;}
	.st5{fill:#E5C71F;}
	.st6{fill:#FED4A6;}
</style>
<polygon class="st0" points="253.2,319.7 246.9,319.3 225.8,331 215.7,348.6 194.8,371.8 185.4,385.4 185.4,394.5 194.8,401.8 
	207.6,402.8 230.4,400.3 250,389.2 261.8,376 275.2,379.3 346.2,405.9 347.3,402 344.8,382.9 "/>
<polygon class="st0" points="187.7,401 201.5,403.9 234.9,420.2 281.7,447.7 283.7,471.2 275.2,475.3 256,466.5 212.8,439.3 
	183.2,420.7 183.2,412.2 "/>
<g>
	<g>
		<path class="st1" d="M205.6,372.8c-2,0.7-3.8,1.7-5.3,2.8c0.7-0.4,1.5-0.9,2.3-1.3C202.6,374.3,203.8,373.9,205.6,372.8z"/>
		<path class="st1" d="M237.2,386.5c-1.5,1.2-3,2.4-4.6,3.5C233.4,389.4,235,388.4,237.2,386.5z"/>
		<path class="st2" d="M91.3,276.6c0,0,72.7,54.1,86.8,55.1s21.7-1,33.8-5.6s15.1-8.2,29.3-7.7c5,0.2,7.7,0.5,9.2,0.8
			c0.2-0.1,0.4-0.2,0.6-0.3c0,0,23.9-10.6,49.1,7c0,0,8.4,6.8,25.1-3.4C341.9,312.4,494,204,494,204l0.4,0.8
			C473.2,89.2,371.8,1.5,250,1.5C124.7,1.5,21.1,94.2,4,214.8l2.4-5L91.3,276.6z"/>
		<path class="st2" d="M349.9,405.6l-3.1-1.5c0.7,2.8,3.7,19.1-14.7,20.5c0,0,0,24-17.2,20.9c0,0,1.5,24.5-15.1,21.4
			c0,0,4,37.8-33.8,13.8l0.9-1.2c-6.8,7.5-14.3,15.5-13.8,13.2c0,0-12.2,1.2-16.4-9.8l1.6-10.3c0,0-9.8,7.9-17.1,5.3
			c0,0-7-4.3-8-9.1c-0.9-4.8,1.9-10.3,1.9-10.3s-11,9.3-15.9,6c0,0-9.4-5.3-9.4-10.5c0-5.3,1.2-9.8,1.2-9.8s-8.3,9.3-16.8,6.2
			c-8.5-3.1-8.3-14.1-8.3-14.1l5.8-12.1l-1.1,1.4l-22.7-24l-139-91.8C35.6,418.2,133.4,498.5,250,498.5
			c116.5,0,214.3-80.2,241.2-188.4L349.9,405.6z"/>
	</g>
	<g id="Øl_2_">
		<path class="st3" d="M364.5,178.3h-38c-12.2,0-22.2,10-22.3,22.2c3.5-3.2,8.1-5.2,13.2-5.2H352c10.7,0,19.5,8.8,19.5,19.5v70.5
			c0,10.7-8.8,19.5-19.5,19.5h-34.5c-5.1,0-9.7-2-13.2-5.2c0.1,12.2,10.1,22.2,22.3,22.2h38c12.3,0,22.3-10,22.3-22.3v-98.9
			C386.8,188.3,376.8,178.3,364.5,178.3z"/>
		<path class="st3" d="M178.1,105.3h133.6c9.4,0,17,7.7,17,17v255.5c0,9.4-7.7,17-17,17H178.1c-9.4,0-17-7.7-17-17V122.3
			C161.1,112.9,168.7,105.3,178.1,105.3z"/>
		<path class="st4" d="M186.9,132h117.6c4.7,0,8.5,3.8,8.5,8.5v229.1c0,4.7-3.8,8.5-8.5,8.5H186.9c-4.7,0-8.5-3.8-8.5-8.5V140.5
			C178.4,135.8,182.2,132,186.9,132z"/>
		<circle class="st3" cx="301.9" cy="126.5" r="41.8"/>
		<circle class="st3" cx="246.9" cy="121.9" r="50.3"/>
		<circle class="st3" cx="178.9" cy="121.9" r="41"/>
		<rect x="147.2" y="141.3" class="st3" width="75.2" height="118.4"/>
		<circle class="st3" cx="205.4" cy="261.3" r="16.9"/>
		<rect x="147.2" y="241.8" class="st3" width="41.8" height="72.2"/>
		<circle class="st3" cx="168.1" cy="315.3" r="21"/>
		<circle class="st5" cx="268.5" cy="255" r="8.4"/>
		<circle class="st5" cx="289.6" cy="212.5" r="8.4"/>
		<circle class="st5" cx="281.3" cy="314" r="8.4"/>
		<circle class="st5" cx="241.6" cy="340.2" r="8.4"/>
		<circle class="st5" cx="250" cy="306.3" r="6.1"/>
		<circle class="st5" cx="235.6" cy="238.2" r="6.1"/>
		<circle class="st5" cx="300.4" cy="265.7" r="6.1"/>
	</g>
	<g id="hænder_2_">
		<g>
			<path class="st6" d="M170.5,425.6l1.1-1.4l0.3-0.6c0,0,14.3-26.9,25.6-17.8c0,0,7.7,0.7,8.4,12.9c0,0,24.4-7.9,24.6,16.5
				c0,0,19.2-12.4,22.5,12.7c0,0,28.4-11.9,23.9,20.3c0,0-4.8,5.6-10.1,11.4l-0.9,1.2c37.9,24,33.8-13.8,33.8-13.8
				c16.7,3.1,15.1-21.4,15.1-21.4c17.2,3.1,17.2-20.9,17.2-20.9c18.4-1.4,15.4-17.7,14.7-20.5l-87.1-42c0,0-8.8,13.3-22.6,24.3
				c-2.2,1.9-3.7,2.9-4.6,3.5c-10.3,7.3-22.9,12.6-36.3,10.6c0,0-20.2-10.2,4.1-25c1.5-1.1,3.3-2.1,5.3-2.8
				c5.3-3,16.3-11.6,21.8-32.5c0,0,7.5-14.1,22.9-21c-1.4-0.3-4.2-0.6-9.2-0.8c-14.1-0.5-17.2,3.1-29.3,7.7s-19.7,6.6-33.8,5.6
				s-86.8-55.1-86.8-55.1L6.5,209.8l-2.4,5C2.4,226.3,1.5,238,1.5,250c0,20.6,2.5,40.7,7.3,59.8l139,91.8L170.5,425.6z"/>
			<path class="st0" d="M325.2,322.6c-16.7,10.1-25.1,3.4-25.1,3.4c-25.2-17.5-49.1-7-49.1-7c-0.2,0.1-0.4,0.2-0.6,0.3
				c2.6,0.6,0.9,1.2,0.9,1.2s-12.1,7.1-16.7,11.5c-4.5,4.3-13.6,28.3-13.6,28.3s-6.1,9.7-14.6,12.2c-0.3,0.1-0.5,0.2-0.8,0.2
				c-1.9,1.1-3,1.4-3,1.4c-0.8,0.4-1.6,0.9-2.3,1.3c-4.4,3.2-7.4,7.4-7.4,7.4s-2.2,12.6,7.4,14.7c9.6,2,28.5-5.6,28.5-5.6
				s3.2-1.7,3.8-2.1c1.6-1.1,3.1-2.3,4.6-3.5c4.5-3.9,11.4-10.1,22.6-24.7l86.9,42c0,0,0,0.1,0.1,0.4l3.1,1.5L491.2,310
				c4.8-19.2,7.3-39.3,7.3-60c0-15.4-1.4-30.4-4.1-45.1l-0.4-0.8C493.9,204.1,341.9,312.5,325.2,322.6z"/>
			<path class="st0" d="M250.8,450.6c0,0,2.5-26-23.7-12.8c0,0,6.6-20.4-23.2-15.3c0,0,5-18.4-20.2-13.8l-12,15.4l-5.8,12.1
				c0,0-0.2,11,8.3,14.1s16.8-6.2,16.8-6.2s-1.2,4.5-1.2,9.8s9.4,10.5,9.4,10.5c4.9,3.3,15.9-6,15.9-6s-2.8,5.5-1.9,10.3
				c0.9,4.8,8,9.1,8,9.1c7.3,2.6,17.1-5.3,17.1-5.3l-1.6,10.3c4.2,11,16.4,9.8,16.4,9.8c-0.5,2.3,7-5.7,13.8-13.2l8.2-11
				C275.1,468.5,278.1,439.4,250.8,450.6z"/>
		</g>
		<g>
			<path class="st0" d="M260.4,360.3c-11.2,14.6-18.7,22.2-23.2,26.1c13.8-11,22.6-24.3,22.6-24.3l87.1,42c-0.1-0.3-0.1-0.4-0.1-0.4
				L260.4,360.3z"/>
			<path class="st0" d="M200.8,397.1c-9.6-2-7.1-14.3-7.1-14.3s2.1-4,6.5-7.2c-24.2,14.7-4.1,25-4.1,25c13.4,2,26-3.4,36.3-10.6
				c-0.6,0.4-0.9,0.5-0.9,0.5S210.4,399.1,200.8,397.1z"/>
			<path class="st0" d="M221,360.3c0,0,9.1-24,13.6-28.3s16.7-11.5,16.7-11.5s1.7-0.6-0.9-1.2c-15.5,7-22.9,21-22.9,21
				c-5.5,20.9-16.5,29.5-21.8,32.5c0.3-0.1,0.5-0.2,0.8-0.2C215,370,221,360.3,221,360.3z"/>
			<path class="st0" d="M253.1,447.8c-3.3-25.1-22.5-12.7-22.5-12.7c-0.2-24.4-24.6-16.5-24.6-16.5c-0.7-12.2-8.4-12.9-8.4-12.9
				c-11.3-9-25.6,17.8-25.6,17.8l-0.3,0.6l12-15.4c25.2-4.6,20.2,13.8,20.2,13.8c29.8-5.1,23.2,15.3,23.2,15.3
				c26.3-13.3,23.7,12.8,23.7,12.8c27.3-11.2,24.2,17.9,24.2,17.9l-8.2,11c5.3-5.9,10.1-11.4,10.1-11.4
				C281.4,435.9,253.1,447.8,253.1,447.8z"/>
		</g>
	</g>
</g>
</svg>
